<?xml version="1.0" standalone="no"?><!DOCTYPE svg PUBLIC "-//W3C//DTD SVG 1.1//EN" "http://www.w3.org/Graphics/SVG/1.1/DTD/svg11.dtd"><svg t="1628779576578" class="icon" viewBox="0 0 1462 1024" version="1.1" xmlns="http://www.w3.org/2000/svg" p-id="4086" xmlns:xlink="http://www.w3.org/1999/xlink" width="285.546875" height="200"><defs><style type="text/css"></style></defs><path d="M1267.785143 2.413714H195.072A174.445714 174.445714 0 0 0 20.699429 176.786286v670.427428a174.518857 174.518857 0 0 0 174.372571 174.372572h1072.713143a174.518857 174.518857 0 0 0 174.372571-174.372572V176.786286A174.518857 174.518857 0 0 0 1267.785143 2.413714z m93.915428 844.8c0 51.785143-42.203429 93.915429-93.915428 93.915429H195.072a93.988571 93.988571 0 0 1-93.915429-93.915429V176.786286c0-51.785143 42.130286-93.915429 93.915429-93.915429h1072.713143c51.712 0 93.915429 42.130286 93.915428 93.915429v670.427428z m-128.292571-578.706285a40.228571 40.228571 0 0 1-9.216 56.100571l-428.909714 308.004571a107.300571 107.300571 0 0 1-124.854857 0.292572L238.665143 324.681143a40.228571 40.228571 0 0 1 46.811428-65.536l431.542858 308.150857c9.435429 6.656 21.942857 6.656 31.305142 0l428.982858-308.077714a40.228571 40.228571 0 0 1 56.100571 9.289143z" p-id="4087"></path></svg>