<?xml version="1.0" standalone="no"?><!DOCTYPE svg PUBLIC "-//W3C//DTD SVG 1.1//EN" "http://www.w3.org/Graphics/SVG/1.1/DTD/svg11.dtd"><svg t="1628818872293" class="icon" viewBox="0 0 1024 1024" version="1.1" xmlns="http://www.w3.org/2000/svg" p-id="3372" xmlns:xlink="http://www.w3.org/1999/xlink" width="200" height="200"><defs><style type="text/css"></style></defs><path d="M510.976 1024c-162.6112 0-455.3728-254.208-459.5712-504.1664V233.728a93.3888 93.3888 0 0 1 81.3056-88.576c56.1152-5.3248 111.104-18.944 163.2768-40.3456A393.3184 393.3184 0 0 0 444.16 23.552a101.7856 101.7856 0 0 1 120.4736-5.4272c45.6192 35.2256 95.8976 64 149.3504 85.504 55.6544 16.7936 112.4352 29.696 169.8816 38.5536 44.1344 8.704 76.8 46.08 79.5136 90.9824a2911.1808 2911.1808 0 0 1-3.0208 291.5328C921.8048 846.8992 670.0544 1024 511.0272 1024z m0-963.7888a39.168 39.168 0 0 0-24.6784 7.8336 438.528 438.528 0 0 1-169.8304 93.3888A608.3584 608.3584 0 0 1 135.68 204.8a33.7408 33.7408 0 0 0-24.064 30.1056v283.6992c4.1984 222.3104 275.2512 445.184 399.36 445.184 124.0576 0 354.1504-148.224 391.5264-444.5696 9.0112-175.872 0-281.9072 0-283.136a38.5536 38.5536 0 0 0-29.5424-33.6896 1287.8336 1287.8336 0 0 1-180.736-41.5744 676.4544 676.4544 0 0 1-158.976-94.5664 37.376 37.376 0 0 0-24.064-6.0416h1.792z" p-id="3373"></path><path d="M782.08 416.8192l-296.96 280.7296a40.3456 40.3456 0 0 1-49.408 4.8128l-7.8336-6.656-161.4336-171.008a40.96 40.96 0 1 1 60.2624-55.4496l133.6832 141.5168 267.4688-252.928a40.96 40.96 0 0 1 55.3984 60.2112" p-id="3374"></path></svg>