<?xml version="1.0" encoding="UTF-8"?>
<svg xmlns="http://www.w3.org/2000/svg" xmlns:xlink="http://www.w3.org/1999/xlink" width="50px" height="50px" viewBox="0 0 50 50" version="1.1">
<g id="surface1">
<path style=" stroke:none;fill-rule:nonzero;fill:rgb(0%,0%,0%);fill-opacity:1;" d="M 48.476562 47.453125 L 2.546875 47.453125 L 2.546875 27.273438 L 10.296875 19.523438 C 10.789062 19.859375 11.386719 20.054688 12.023438 20.054688 C 12.335938 20.054688 12.625 19.996094 12.910156 19.910156 L 25.144531 32.148438 C 25.058594 32.429688 25 32.726562 25 33.03125 C 25 34.734375 26.378906 36.121094 28.089844 36.121094 C 29.796875 36.121094 31.179688 34.738281 31.179688 33.03125 C 31.179688 32.738281 31.125 32.464844 31.050781 32.199219 L 49.191406 14.609375 C 49.59375 14.21875 49.605469 13.570312 49.210938 13.164062 C 48.816406 12.761719 48.171875 12.75 47.765625 13.144531 L 29.859375 30.511719 C 29.359375 30.15625 28.75 29.945312 28.089844 29.945312 C 27.449219 29.945312 26.851562 30.140625 26.359375 30.476562 L 14.585938 18.699219 C 14.921875 18.203125 15.113281 17.609375 15.113281 16.96875 C 15.113281 15.265625 13.730469 13.878906 12.023438 13.878906 C 10.320312 13.878906 8.933594 15.265625 8.933594 16.96875 C 8.933594 17.28125 8.996094 17.570312 9.078125 17.851562 L 2.546875 24.386719 L 2.546875 1.523438 C 2.546875 0.960938 2.089844 0.5 1.523438 0.5 C 0.960938 0.5 0.5 0.960938 0.5 1.523438 L 0.5 48.476562 C 0.5 49.039062 0.960938 49.5 1.523438 49.5 L 48.480469 49.5 C 49.046875 49.5 49.503906 49.046875 49.503906 48.476562 C 49.5 47.910156 49.046875 47.453125 48.476562 47.453125 Z M 48.476562 47.453125 "/>
</g>
</svg>
