<?xml version="1.0" encoding="UTF-8"?>
<svg xmlns="http://www.w3.org/2000/svg" xmlns:xlink="http://www.w3.org/1999/xlink" width="50px" height="50px" viewBox="0 0 50 50" version="1.1">
<g id="surface1">
<path style=" stroke:none;fill-rule:nonzero;fill:rgb(0%,0%,0%);fill-opacity:1;" d="M 36.796875 32.894531 L 27.71875 32.894531 L 38.609375 43.785156 L 49.5 32.894531 L 40.425781 32.894531 L 40.425781 5.636719 L 36.796875 5.636719 Z M 0.5 28.65625 L 5.945312 28.65625 L 5.945312 32.285156 L 0.5 32.285156 Z M 7.761719 28.65625 L 13.203125 28.65625 L 13.203125 32.285156 L 7.761719 32.285156 Z M 15.019531 28.65625 L 18.648438 28.65625 L 18.648438 34.101562 L 15.019531 34.101562 Z M 0.5 41.355469 L 4.128906 41.355469 L 4.128906 46.800781 L 0.5 46.800781 Z M 5.945312 43.171875 L 11.390625 43.171875 L 11.390625 46.800781 L 5.945312 46.800781 Z M 13.203125 43.171875 L 18.648438 43.171875 L 18.648438 46.800781 L 13.203125 46.800781 Z M 0.5 34.09375 L 4.128906 34.09375 L 4.128906 39.539062 L 0.5 39.539062 Z M 15.019531 35.910156 L 18.648438 35.910156 L 18.648438 41.355469 L 15.019531 41.355469 Z M 15.019531 6.828125 L 15.019531 17.71875 L 4.128906 17.71875 L 4.128906 6.828125 Z M 18.648438 3.199219 L 0.5 3.199219 L 0.5 21.351562 L 18.648438 21.351562 Z M 18.648438 3.199219 "/>
</g>
</svg>
