<?xml version="1.0" encoding="UTF-8"?>
<svg xmlns="http://www.w3.org/2000/svg" xmlns:xlink="http://www.w3.org/1999/xlink" width="50px" height="50px" viewBox="0 0 50 50" version="1.1">
<g id="surface1">
<path style=" stroke:none;fill-rule:nonzero;fill:rgb(0%,0%,0%);fill-opacity:1;" d="M 36.796875 16.5 L 36.796875 43.761719 L 40.425781 43.761719 L 40.425781 16.5 L 49.5 16.5 L 38.609375 5.609375 L 27.71875 16.5 Z M 36.796875 16.5 "/>
<path style=" stroke:none;fill-rule:nonzero;fill:rgb(0%,0%,0%);fill-opacity:1;" d="M 0.5 3.21875 L 5.945312 3.21875 L 5.945312 6.851562 L 0.5 6.851562 Z M 0.5 3.21875 "/>
<path style=" stroke:none;fill-rule:nonzero;fill:rgb(0%,0%,0%);fill-opacity:1;" d="M 7.761719 3.21875 L 13.203125 3.21875 L 13.203125 6.851562 L 7.761719 6.851562 Z M 7.761719 3.21875 "/>
<path style=" stroke:none;fill-rule:nonzero;fill:rgb(0%,0%,0%);fill-opacity:1;" d="M 15.019531 3.21875 L 18.648438 3.21875 L 18.648438 8.664062 L 15.019531 8.664062 Z M 15.019531 3.21875 "/>
<path style=" stroke:none;fill-rule:nonzero;fill:rgb(0%,0%,0%);fill-opacity:1;" d="M 0.5 15.925781 L 4.128906 15.925781 L 4.128906 21.371094 L 0.5 21.371094 Z M 0.5 15.925781 "/>
<path style=" stroke:none;fill-rule:nonzero;fill:rgb(0%,0%,0%);fill-opacity:1;" d="M 5.945312 17.738281 L 11.390625 17.738281 L 11.390625 21.371094 L 5.945312 21.371094 Z M 5.945312 17.738281 "/>
<path style=" stroke:none;fill-rule:nonzero;fill:rgb(0%,0%,0%);fill-opacity:1;" d="M 13.203125 17.738281 L 18.648438 17.738281 L 18.648438 21.371094 L 13.203125 21.371094 Z M 13.203125 17.738281 "/>
<path style=" stroke:none;fill-rule:nonzero;fill:rgb(0%,0%,0%);fill-opacity:1;" d="M 0.5 8.664062 L 4.128906 8.664062 L 4.128906 14.109375 L 0.5 14.109375 Z M 0.5 8.664062 "/>
<path style=" stroke:none;fill-rule:nonzero;fill:rgb(0%,0%,0%);fill-opacity:1;" d="M 15.019531 10.480469 L 18.648438 10.480469 L 18.648438 15.925781 L 15.019531 15.925781 Z M 15.019531 10.480469 "/>
<path style=" stroke:none;fill-rule:nonzero;fill:rgb(0%,0%,0%);fill-opacity:1;" d="M 15.019531 32.261719 L 15.019531 43.148438 L 4.128906 43.148438 L 4.128906 32.261719 Z M 18.648438 28.628906 L 0.5 28.628906 L 0.5 46.78125 L 18.648438 46.78125 Z M 18.648438 28.628906 "/>
</g>
</svg>
